<svg
                xmlns="http://www.w3.org/2000/svg"
                fill="none"
                viewBox="0 0 24 24"
                stroke-width="1.5"
                stroke="currentColor"
                class="w-6 h-6 inline-block mr-1"
            >
                <path
                    stroke-linecap="round"
                    stroke-linejoin="round"
                    d="M3 13.125C3 12.504 3.504 12 4.125 12h2.25c.621 0 1.125.504 1.125 1.125v2.25C7.5 16.496 6.996 17 6.375 17H4.125A1.125 1.125 0 013 15.875v-2.25zM9.75 3c0-.621.504-1.125 1.125-1.125h2.25c.621 0 1.125.504 1.125 1.125v2.25C14.25 6.496 13.746 7 13.125 7h-2.25A1.125 1.125 0 019.75 5.875V3zM9.75 12c0-.621.504-1.125 1.125-1.125h2.25c.621 0 1.125.504 1.125 1.125v2.25C14.25 16.496 13.746 17 13.125 17h-2.25A1.125 1.125 0 019.75 15.875v-2.25zM15 .375c0-.621-.504-1.125-1.125-1.125h-2.25c-.621 0-1.125.504-1.125 1.125v2.25C10.5 6.496 11.004 7 11.625 7h2.25A1.125 1.125 0 0115 .375zM21 12c0-.621-.504-1.125-1.125-1.125h-2.25c-.621 0-1.125.504-1.125 1.125v2.25C16.5 16.496 17.004 17 17.625 17h2.25A1.125 1.125 0 0121 15.875v-2.25zM15 .375c0-.621-.504-1.125-1.125-1.125h-2.25c-.621 0-1.125.504-1.125 1.125v2.25C10.5 6.496 11.004 7 11.625 7h2.25A1.125 1.125 0 0115 .375zM21 .375c0-.621-.504-1.125-1.125-1.125h-2.25c-.621 0-1.125 .504-1 .375v2 .25C16 .5A1 .125A1 .125 0 0117 .625h2.25A1 .125A1 .125 0 0121 .375z"
                />
            </svg>
